HIERARCHY
ROOT root
{
	OFFSET	0	13.1	24.9
	CHANNELS 6  Xposition Yposition Zposition Xrotation Yrotation Zrotation
	JOINT spine_1
	{
		OFFSET	0	9.99999	0
		CHANNELS 3  Xrotation Yrotation Zrotation
		JOINT spine_2
		{
			OFFSET	0	112	-10
			CHANNELS 3  Xrotation Yrotation Zrotation
			JOINT spine_3
			{
				OFFSET	0	206.5	19.3
				CHANNELS 3  Xrotation Yrotation Zrotation
				JOINT spine_4
				{
					OFFSET	0	110.4	14.6
					CHANNELS 3  Xrotation Yrotation Zrotation
					JOINT neck_1
					{
						OFFSET	0	71.8	-50.3
						CHANNELS 3  Xrotation Yrotation Zrotation
						JOINT neck_2
						{
							OFFSET	0	86.2	-25.8
							CHANNELS 3  Xrotation Yrotation Zrotation
							JOINT head_ee
							{
								OFFSET	0	179.8	-8.7
								CHANNELS 3  Xrotation Yrotation Zrotation
								End Site
								{
									OFFSET	1	0	0
								}
							}
						}
					}
					JOINT left_clavicle
					{
						OFFSET	-43.2	22.4	-70.8
						CHANNELS 3  Xrotation Yrotation Zrotation
						JOINT left_shoulder
						{
							OFFSET	-93.9	-5.79999	48.7
							CHANNELS 3  Xrotation Yrotation Zrotation
							JOINT left_elbow
							{
								OFFSET	-291.4	-30.8	15.2
								CHANNELS 3  Xrotation Yrotation Zrotation
								JOINT left_lowarm_twist
								{
									OFFSET	-110.7	-3.89999	13.6
									CHANNELS 3  Xrotation Yrotation Zrotation
									JOINT left_hand
									{
										OFFSET	-110.7	-3.89999	13.6
										CHANNELS 3  Xrotation Yrotation Zrotation
										JOINT left_ee
										{
											OFFSET	-80.8	-5.10001	12.1
											CHANNELS 3  Xrotation Yrotation Zrotation
											End Site
											{
												OFFSET	1	0	0
											}
										}
									}
								}
							}
						}
					}
					JOINT right_clavicle
					{
						OFFSET	43.2	22.4	-70.8
						CHANNELS 3  Xrotation Yrotation Zrotation
						JOINT right_shoulder
						{
							OFFSET	93.9	-5.79999	48.7
							CHANNELS 3  Xrotation Yrotation Zrotation
							JOINT right_elbow
							{
								OFFSET	291.4	-30.8	15.2
								CHANNELS 3  Xrotation Yrotation Zrotation
								JOINT right_lowarm_twist
								{
									OFFSET	110.7	-3.89999	13.6
									CHANNELS 3  Xrotation Yrotation Zrotation
									JOINT right_hand
									{
										OFFSET	110.7	-3.89999	13.6
										CHANNELS 3  Xrotation Yrotation Zrotation
										JOINT right_ee
										{
											OFFSET	80.8	-5.10001	12.1
											CHANNELS 3  Xrotation Yrotation Zrotation
											End Site
											{
												OFFSET	1	0	0
											}
										}
									}
								}
							}
						}
					}
				}
			}
		}
	}
	JOINT left_hip
	{
		OFFSET	-82.8	-127.5	0.300001
		CHANNELS 3  Xrotation Yrotation Zrotation
		JOINT left_knee
		{
			OFFSET	-28.2	-396.7	2.2
			CHANNELS 3  Xrotation Yrotation Zrotation
			JOINT left_ankle
			{
				OFFSET	-11.7	-411.3	35.4
				CHANNELS 3  Xrotation Yrotation Zrotation
				JOINT left_toes
				{
					OFFSET	0	-60	-88.6
					CHANNELS 3  Xrotation Yrotation Zrotation
					JOINT left_foot_ee
					{
						OFFSET	-22.5	-16.5	-42.2
						CHANNELS 3  Xrotation Yrotation Zrotation
						End Site
						{
							OFFSET	1	0	0
						}
					}
				}
			}
		}
	}
	JOINT right_hip
	{
		OFFSET	82.8	-127.5	0.300001
		CHANNELS 3  Xrotation Yrotation Zrotation
		JOINT right_knee
		{
			OFFSET	28.2	-396.7	2.2
			CHANNELS 3  Xrotation Yrotation Zrotation
			JOINT right_ankle
			{
				OFFSET	11.7	-411.3	35.4
				CHANNELS 3  Xrotation Yrotation Zrotation
				JOINT right_toes
				{
					OFFSET	0	-60	-88.6
					CHANNELS 3  Xrotation Yrotation Zrotation
					JOINT right_foot_ee
					{
						OFFSET	22.5	-16.5	-42.2
						CHANNELS 3  Xrotation Yrotation Zrotation
						End Site
						{
							OFFSET	1	0	0
						}
					}
				}
			}
		}
	}
}
MOTION
Frames: 11
Frame Time: 0.02
592.674 746.227 -438.107 51.8094 -77.1397 56.3634 -5.70218 -0.109264 -2.76219 -5.69793 0.0666542 -2.76355 -5.69379 0.910126 -2.61034 -5.70296 0.486613 -2.72121 -6.78048 3.0599 8.90711 -6.55643 -0.80584 9.53531 -0.0 0.0 -0.0 7.73589 -7.42549 15.0215 -2.7554 -6.5656 61.6747 1.65989 -39.426 0.59479 -57.4902 -4.97238 5.01621 -0.243742 8.16727 1.81777 -0.0 0.0 -0.0 5.98153 6.11265 -11.4147 2.46098 25.8676 -56.7699 0.992025 26.1699 -0.230582 35.1832 0.122713 4.42293 -0.137172 -6.99191 -2.02066 0.0 0.0 0.0 10.9786 0.740641 -12.9718 -42.6882 -0.646587 6.37045 6.80632 3.52296 -0.980749 -10.6869 0.0 0.0 -0.0 0.0 -0.0 -13.2183 9.9018 -16.2738 -10.8467 -0.29243 -1.63644 37.3469 -23.6015 4.86501 -25.7798 0.0 0.0 0.0 0.0 0.0 
605.725 747.295 -439.611 47.3513 -76.1855 51.2412 -5.87102 -0.0352179 -2.49835 -5.86756 0.12378 -2.49554 -5.86705 0.889403 -2.33504 -5.8743 0.509583 -2.44612 -5.59532 3.07566 8.5521 -5.38901 -0.701625 9.22563 -0.0 0.0 -0.0 7.93723 -8.07774 15.4315 -4.49848 -5.14772 61.7866 1.43255 -35.3592 0.456645 -59.2155 -5.18535 5.07609 -0.154781 11.0077 3.56202 -0.0 0.0 -0.0 5.81857 4.01399 -11.1568 4.74799 26.6877 -56.922 1.07056 27.9374 -0.266307 34.1772 0.0815336 4.3011 -0.0552251 -6.31799 -2.2757 0.0 0.0 0.0 12.3893 1.52456 -11.4128 -42.7876 -0.653571 6.38405 7.58907 6.96941 -1.08758 -11.7128 0.0 0.0 -0.0 0.0 -0.0 -14.3063 12.5315 -15.3632 -10.4118 -0.286701 -1.56996 37.7692 -19.4551 4.80536 -26.9008 0.0 0.0 0.0 0.0 0.0 
615.503 745.745 -438.278 42.6114 -74.5481 46.0455 -6.04994 -0.174239 -2.51175 -6.04643 -0.014109 -2.51774 -6.03917 0.772244 -2.3965 -6.04697 0.384194 -2.48831 -6.38159 2.19838 7.91423 -6.20208 -1.73293 8.38785 -0.0 0.0 -0.0 7.82271 -8.28088 15.1845 -5.83371 -3.52985 62.6919 1.34793 -33.7304 0.408656 -56.3186 -4.82879 4.9719 0.467717 12.4872 8.11576 -0.0 0.0 -0.0 6.42105 2.79569 -12.4061 7.9482 27.5888 -56.4707 1.15605 29.7976 -0.307585 33.9501 0.0725329 4.2735 -0.650151 -5.79147 1.83566 0.0 0.0 0.0 16.2935 14.0205 -14.5579 -38.7704 -0.390402 5.82539 2.96612 -7.07848 -0.446776 -12.9599 0.0 0.0 -0.0 0.0 -0.0 -15.0966 10.1239 -15.3508 -11.2287 -0.297046 -1.69487 39.4383 -18.6624 4.94699 -28.4957 0.0 0.0 0.0 0.0 0.0 
625.297 741.999 -437.815 43.2744 -73.5995 46.5214 -6.25707 -0.00162769 -2.51272 -6.25357 0.158216 -2.50774 -6.2544 0.941732 -2.32968 -6.26154 0.562102 -2.44908 -5.79991 3.63094 8.01051 -5.62238 0.759215 8.76743 -0.0 0.0 -0.0 7.91471 -9.49202 15.3466 -6.37566 -0.890571 62.8416 1.17832 -30.2713 0.318733 -57.1475 -4.93028 5.00355 0.996056 14.7121 12.3058 -0.0 0.0 -0.0 5.72589 0.631848 -11.0661 12.0596 29.1173 -57.9358 1.25563 31.8803 -0.358639 34.5833 0.0978977 4.35036 -0.960498 -7.77715 2.9916 0.0 0.0 0.0 20.4972 27.4422 -18.5801 -36.5969 -0.264579 5.51598 -2.69684 -16.116 0.436799 -16.3049 0.0 0.0 -0.0 0.0 -0.0 -16.4431 10.2218 -15.5328 -11.5809 -0.300956 -1.74877 40.2305 -18.4852 5.01615 -27.4543 0.0 0.0 0.0 0.0 0.0 
628.324 740.949 -434.015 41.5617 -73.4248 44.4005 -6.35137 -0.0364069 -2.39768 -6.34818 0.116193 -2.39514 -6.34728 0.86987 -2.23471 -6.35389 0.506126 -2.34397 -5.57303 2.72403 8.32088 -5.37617 -1.17991 8.9299 -0.0 0.0 -0.0 7.05397 -9.38825 13.5257 -8.26863 -1.92749 64.1865 1.11055 -28.8158 0.285312 -54.5753 -4.61686 4.90054 1.61744 13.96 16.0558 -0.0 0.0 -0.0 5.1887 -0.867313 -10.0536 15.2629 30.6254 -59.262 1.3748 34.2545 -0.423679 34.7152 0.10329 4.36634 -1.15214 -7.38284 4.41303 0.0 0.0 0.0 21.1245 29.2219 -17.8903 -32.9181 -0.0787226 4.98236 -2.77655 -16.3635 0.450692 -17.7243 0.0 0.0 -0.0 0.0 -0.0 -16.906 10.8335 -15.6397 -9.80912 -0.277928 -1.4779 40.4776 -15.7736 4.98761 -30.4533 0.0 0.0 0.0 0.0 0.0 
631.744 741.031 -431.472 36.1317 -72.175 38.7562 -6.36072 -0.080025 -2.3446 -6.35767 0.0692886 -2.34494 -6.35482 0.809706 -2.20188 -6.3613 0.451897 -2.30206 -4.07215 0.298575 7.94842 -3.86784 -5.54349 8.24239 -0.0 0.0 -0.0 7.51262 -9.43659 14.4941 -7.79564 1.20896 63.171 0.89412 -23.8893 0.189152 -54.0305 -4.55109 4.87692 1.82189 15.9023 18.0303 -0.0 0.0 -0.0 5.64578 -0.168678 -10.9266 17.7563 31.669 -58.5148 1.3937 34.6191 -0.434362 34.5563 0.0967992 4.34709 -1.46579 -4.75422 7.66748 0.0 0.0 0.0 22.0069 29.8172 -16.7186 -30.3849 0.029131 4.60862 -5.5117 -17.7915 0.9109 -18.1991 0.0 0.0 -0.0 0.0 -0.0 -17.9414 9.44405 -15.8151 -7.20456 -0.228893 -1.08127 40.5534 -15.8475 4.99559 -31.2199 0.0 0.0 0.0 0.0 0.0 
635.857 744.277 -434.096 36.0422 -72.0473 37.7323 -6.42297 -0.211188 -2.35482 -6.41989 -0.0609596 -2.36348 -6.4111 0.694204 -2.2601 -6.41807 0.328654 -2.34132 -4.64082 2.55054 8.95616 -4.40893 -2.12008 9.59733 -0.0 0.0 -0.0 7.48358 -8.8346 14.4521 -7.92765 1.59622 63.7808 0.750769 -20.4006 0.13509 -54.8786 -4.65358 4.91342 2.83462 22.7981 26.5882 -0.0 0.0 -0.0 5.80315 0.270014 -11.2261 22.0181 32.2168 -59.4069 1.51433 36.8731 -0.504851 34.0414 0.0761382 4.2846 -1.9917 -7.19627 10.0029 0.0 0.0 0.0 24.9885 39.1885 -15.2558 -19.6649 0.299475 2.98809 -15.2162 -16.9672 2.5318 -24.1579 0.0 0.0 -0.0 0.0 -0.0 -18.2971 13.2225 -15.1136 -4.71526 -0.16522 -0.704587 36.9002 -17.6531 4.68609 -35.6048 0.0 0.0 0.0 0.0 0.0 
638.843 741.972 -433.191 33.5537 -71.7199 35.0436 -6.4476 -0.459375 -2.48762 -6.4442 -0.300202 -2.51179 -6.42315 0.514951 -2.47672 -6.43169 0.117467 -2.52693 -5.90019 0.986021 9.89137 -5.60492 -5.50754 10.2023 -0.0 0.0 -0.0 7.33182 -8.56316 14.1404 -8.31369 2.16392 64.8863 0.613979 -16.9171 0.0913067 -51.9731 -4.30474 4.7821 3.51613 25.486 31.7108 -0.0 0.0 -0.0 5.39045 0.890288 -10.3983 26.16 34.3464 -60.1457 1.5946 38.3031 -0.55382 33.3638 0.0498048 4.20209 -2.5868 -7.30668 13.909 0.0 0.0 0.0 29.5476 46.6113 -15.4384 -16.137 0.321634 2.44734 -20.9943 -17.4595 3.51715 -27.1975 0.0 0.0 -0.0 0.0 -0.0 -18.928 13.3786 -15.3552 -2.35642 -0.0898257 -0.350451 39.1826 -11.3603 4.81514 -39.5009 0.0 0.0 0.0 0.0 0.0 
646.605 736.42 -437.208 32.943 -71.394 34.3039 -6.61674 -0.298075 -2.46986 -6.61336 -0.140358 -2.48381 -6.59992 0.665102 -2.39727 -6.60783 0.278273 -2.47216 -3.05062 0.00625845 8.69384 -2.79255 -6.77234 9.06821 -0.0 0.0 -0.0 7.10123 -8.44449 13.659 -9.50534 2.9365 65.2528 0.545472 -15.121 0.0723994 -50.9163 -4.17954 4.72996 3.84688 25.4273 34.0099 -0.0 0.0 -0.0 5.54108 2.08708 -10.6608 27.6629 34.1863 -58.3934 1.66635 39.535 -0.598891 33.4606 0.0535076 4.2139 -2.75706 -6.25599 15.596 0.0 0.0 0.0 30.4443 49.6296 -12.7212 -12.581 0.310253 1.90194 -17.1692 -21.3248 2.97821 -29.726 0.0 0.0 -0.0 0.0 -0.0 -19.4295 13.3666 -15.462 -0.805624 -0.0323333 -0.119404 33.2645 -12.6268 4.25707 -40.1023 0.0 0.0 0.0 0.0 0.0 
656.081 733.459 -440.076 30.8383 -70.9313 32.2568 -6.5542 -0.457237 -2.56857 -6.55057 -0.292922 -2.59244 -6.52886 0.552262 -2.54984 -6.5379 0.142775 -2.60502 -3.94705 -1.96632 7.72494 -3.71846 -9.51602 7.67638 -0.0 0.0 -0.0 6.83319 -8.11977 13.108 -10.6638 3.64838 66.5999 0.503618 -14.0083 0.0618738 -51.7807 -4.28187 4.77278 4.19669 27.4387 36.7703 -0.0 0.0 -0.0 5.19701 1.46263 -9.99843 30.9657 33.4926 -59.3658 1.78582 41.4935 -0.67652 33.2108 0.0439974 4.18342 -2.88045 -4.97772 17.0991 0.0 0.0 0.0 29.4059 49.5993 -10.1552 -9.08093 0.266036 1.3668 -14.7193 -23.5916 2.61055 -31.5735 0.0 0.0 -0.0 0.0 -0.0 -21.1382 13.9389 -15.411 1.89269 0.0825548 0.278686 30.1288 -9.8275 3.90993 -40.1053 0.0 0.0 0.0 0.0 0.0 
676.525 724.757 -447.533 30.3955 -69.8329 31.8178 -6.58462 -0.25683 -2.60338 -6.58085 -0.0907071 -2.61444 -6.5688 0.752819 -2.50542 -6.5774 0.347827 -2.5928 -0.70454 -3.32272 5.6708 -0.504472 -10.5344 5.69236 -0.0 0.0 -0.0 6.92745 -8.01857 13.3088 -12.6348 4.95235 66.8615 0.472151 -13.1644 0.0544816 -51.7435 -4.27745 4.77097 4.42256 28.8384 38.5381 -0.0 0.0 -0.0 5.39804 3.00138 -10.3448 32.2447 31.633 -56.8258 1.88592 43.0481 -0.743853 33.0829 0.0391779 4.1678 -3.17437 -4.68938 19.2898 0.0 0.0 0.0 26.6664 49.4675 -5.98311 -5.32046 0.182206 0.795911 -10.3099 -26.6754 1.886 -34.4814 0.0 0.0 -0.0 0.0 -0.0 -23.3719 14.0292 -15.7792 3.14398 0.142179 0.461401 24.17 -11.3527 3.24442 -36.629 0.0 0.0 0.0 0.0 0.0 
